<mxfile host="65bd71144e">
    <diagram id="iHHP0NBOQl-Buv-o3Obi" name="第 1 页">
        <mxGraphModel dx="783" dy="489" grid="0" gridSize="10" guides="1" tooltips="1" connect="1" arrows="1" fold="1" page="1" pageScale="1" pageWidth="827" pageHeight="1169" background="none" math="0" shadow="0">
            <root>
                <mxCell id="0"/>
                <mxCell id="1" parent="0"/>
                <mxCell id="10" value="" style="group;sketch=0;shadow=0;glass=0;" vertex="1" connectable="0" parent="1">
                    <mxGeometry x="255" y="344" width="370" height="210" as="geometry"/>
                </mxCell>
                <mxCell id="6" value="void &lt;font color=&quot;#ff33ff&quot;&gt;ClassA &lt;/font&gt;:: test()&lt;br&gt;&lt;div style=&quot;text-align: left&quot;&gt;&lt;span&gt;{&lt;/span&gt;&lt;/div&gt;&lt;div style=&quot;text-align: left&quot;&gt;&amp;nbsp; &amp;nbsp; &amp;nbsp;...&lt;font color=&quot;#ff33ff&quot;&gt;this&lt;/font&gt;...&lt;/div&gt;&lt;div style=&quot;text-align: left&quot;&gt;&lt;span&gt;}&lt;/span&gt;&lt;/div&gt;" style="text;html=1;strokeColor=none;fillColor=none;align=center;verticalAlign=middle;whiteSpace=wrap;rounded=0;fontSize=24;" vertex="1" parent="10">
                    <mxGeometry width="370" height="210" as="geometry"/>
                </mxCell>
                <mxCell id="7" value="" style="rounded=0;whiteSpace=wrap;html=1;fontSize=24;fontColor=#FF33FF;fillColor=none;strokeWidth=1;opacity=40;" vertex="1" parent="10">
                    <mxGeometry x="110" y="100" width="100" height="40" as="geometry"/>
                </mxCell>
                <mxCell id="8" value="" style="rounded=0;whiteSpace=wrap;html=1;fontSize=24;fontColor=#FF33FF;fillColor=none;strokeWidth=1;opacity=40;" vertex="1" parent="10">
                    <mxGeometry x="130" y="40" width="80" height="40" as="geometry"/>
                </mxCell>
                <mxCell id="9" style="edgeStyle=orthogonalEdgeStyle;html=1;entryX=0.5;entryY=1;entryDx=0;entryDy=0;fontSize=24;fontColor=#FF33FF;strokeColor=#BABABA;" edge="1" parent="10" source="7" target="8">
                    <mxGeometry relative="1" as="geometry"/>
                </mxCell>
            </root>
        </mxGraphModel>
    </diagram>
</mxfile>